<?xml version="1.0" encoding="UTF-8" ?>
<!DOCTYPE svg PUBLIC "-//W3C//DTD SVG 1.1//EN" "http://www.w3.org/Graphics/SVG/1.1/DTD/svg11.dtd">
<svg width="45pt" height="45pt" viewBox="0 0 45 45" version="1.1" xmlns="http://www.w3.org/2000/svg">
<g id="#fefefefe">
<path fill="#fefefe" opacity="1.00" d=" M 20.62 0.00 L 24.24 0.00 C 35.18 0.80 44.50 10.28 45.00 21.25 L 45.00 23.72 C 44.50 34.89 34.86 44.51 23.70 45.00 L 21.33 45.00 C 10.11 44.51 0.49 34.79 0.00 23.59 L 0.00 21.03 C 0.71 10.20 9.80 0.90 20.62 0.00 M 17.47 2.61 C 9.14 4.62 2.59 12.33 2.11 20.91 C 1.40 28.50 5.42 36.25 11.99 40.09 C 18.10 43.80 26.19 43.93 32.43 40.44 C 39.03 36.88 43.32 29.43 42.96 21.93 C 42.91 14.57 38.40 7.49 31.83 4.23 C 27.45 1.93 22.24 1.50 17.47 2.61 Z" />
<path fill="#fefefe" opacity="1.00" d=" M 22.46 8.71 C 25.98 10.48 29.43 12.37 32.99 14.04 C 29.65 15.96 26.08 17.51 22.97 19.81 C 19.33 18.00 15.71 16.13 12.19 14.10 C 15.66 12.40 19.07 10.58 22.46 8.71 Z" />
<path fill="#fefefe" opacity="1.00" d=" M 10.61 15.87 C 11.40 16.11 12.20 16.34 13.00 16.56 L 13.00 18.23 L 13.91 17.43 C 14.53 18.13 15.78 19.51 16.41 20.20 L 13.34 20.73 C 14.84 21.06 16.31 21.53 17.81 21.87 L 17.70 22.95 L 19.50 22.09 L 19.47 23.20 C 20.14 23.60 21.47 24.39 22.14 24.78 C 23.16 24.31 24.18 23.83 25.20 23.34 C 26.18 22.97 26.99 22.37 27.61 21.56 C 29.25 21.53 30.79 20.81 31.82 19.52 L 32.49 19.65 L 32.31 17.92 C 32.89 18.35 34.03 19.21 34.61 19.64 C 34.77 23.56 34.88 27.53 34.58 31.45 C 32.31 32.54 30.07 35.09 27.39 34.50 C 27.72 31.97 30.93 31.71 32.69 30.43 C 32.63 27.45 32.61 24.47 32.75 21.49 C 29.31 23.37 25.90 25.32 22.40 27.09 C 19.07 25.18 15.66 23.42 12.35 21.47 C 12.43 24.49 12.42 27.50 12.36 30.52 C 14.42 31.57 16.55 32.51 18.44 33.85 L 17.96 35.22 C 15.20 34.71 12.90 32.88 10.52 31.49 C 10.07 27.53 10.47 23.38 10.40 19.34 C 10.98 19.32 12.14 19.28 12.71 19.26 L 12.77 17.19 L 11.71 17.84 L 10.61 15.87 Z" />
<path fill="#fefefe" opacity="1.00" d=" M 18.33 21.35 C 17.38 19.98 16.23 18.76 15.50 17.25 C 18.11 17.84 20.38 19.38 22.75 20.57 C 25.02 19.39 27.13 17.66 29.72 17.26 C 29.02 18.41 28.20 19.47 27.36 20.52 C 26.78 20.63 25.63 20.84 25.05 20.94 C 24.50 21.34 23.39 22.14 22.84 22.54 C 21.35 21.66 19.86 20.78 18.38 19.89 L 18.33 21.35 Z" />
<path fill="#fefefe" opacity="1.00" d=" M 29.95 18.69 C 32.10 16.76 31.79 21.03 29.81 19.45 L 29.95 18.69 Z" />
<path fill="#fefefe" opacity="1.00" d=" M 19.09 28.76 C 20.36 29.86 21.57 31.03 22.80 32.16 C 23.93 30.94 25.07 29.73 26.23 28.54 C 26.15 30.94 26.05 33.34 26.11 35.74 C 23.90 36.30 21.63 36.31 19.38 36.07 C 19.27 33.64 19.14 31.20 19.09 28.76 Z" />
</g>
</svg>
